<?xml version="1.0" encoding="UTF-8"?>
<svg id="Layer_2" data-name="Layer 2" xmlns="http://www.w3.org/2000/svg" viewBox="0 0 269.33 50.74">
  <defs>
    <style>
      .cls-1 {
        fill: #fff;
      }

      .cls-2 {
        fill: #808285;
      }

      .cls-3 {
        fill: #1c75bc;
      }

      .cls-4 {
        fill: #39b54a;
      }
    </style>
  </defs>
  <g id="Layer_1-2" data-name="Layer 1">
    <g>
      <g>
        <g>
          <path class="cls-1" d="M75.7,40.38v9.19c0,.09-.07.16-.16.16h-2.07c-.09,0-.16-.07-.16-.16v-4.74c0-.16-.21-.23-.3-.09l-2.79,4.32s-.08.08-.14.08h-1.68c-.06,0-.11-.03-.14-.08l-2.77-4.32c-.09-.14-.3-.08-.3.09v4.73c0,.09-.07.16-.16.16h-2.05c-.09,0-.16-.07-.16-.16v-9.19c0-.09.07-.16.16-.16h2.34c.06,0,.11.03.14.08l3.65,5.65c.06.1.21.1.28,0l3.69-5.65s.08-.07.14-.07h2.34c.09,0,.16.07.16.16Z"/>
          <path class="cls-1" d="M86.52,48.33h-4.76c-.07,0-.13.04-.15.1l-.49,1.21c-.03.06-.09.1-.15.1h-2.34c-.12,0-.2-.12-.15-.23l4.1-9.22c.03-.06.09-.1.15-.1h2.82c.06,0,.12.04.15.1l4.14,9.22c.05.11-.03.23-.15.23h-2.34c-.07,0-.13-.04-.15-.1l-.51-1.21c-.03-.06-.09-.1-.15-.1ZM85.72,46.14l-1.43-3.45c-.06-.14-.25-.14-.3,0l-1.43,3.45c-.04.11.03.23.15.23h2.86c.12,0,.2-.12.15-.23Z"/>
          <path class="cls-1" d="M97.59,46.83h-2.45c-.09,0-.16.07-.16.16v2.58c0,.09-.07.16-.16.16h-2.05c-.09,0-.16-.07-.16-.16v-9.19c0-.09.07-.16.16-.16h5.89c2.4,0,3.75.78,3.75,3.24,0,1.53-.67,2.58-1.89,3.05-.1.04-.14.17-.07.25l2.16,2.7c.09.11,0,.27-.13.27h-2.46c-.05,0-.1-.02-.13-.06l-2.16-2.78s-.08-.06-.13-.06ZM94.98,44.52c0,.09.07.16.16.16h3.3c.94,0,1.5-.38,1.5-1.23s-.55-1.04-1.5-1.04h-3.3c-.09,0-.16.07-.16.16v1.94Z"/>
          <path class="cls-1" d="M113.83,47.64v1.93c0,.09-.07.16-.16.16h-8.05c-.09,0-.16-.07-.16-.16v-9.19c0-.09.07-.16.16-.16h2.11c.09,0,.16.07.16.16v6.93c0,.09.07.16.16.16h5.61c.09,0,.16.07.16.16Z"/>
          <path class="cls-1" d="M127.04,47.03c-.05,1.53-1.41,2.7-2.95,2.7h-7.28c-.09,0-.16-.07-.16-.16v-9.19c0-.09.07-.16.16-.16h6.58c1.88,0,2.96.82,2.96,2.43,0,.96-.48,1.68-1.25,2.02,1.21.2,1.98,1.15,1.94,2.37ZM122.97,42.42h-3.77c-.09,0-.16.07-.16.16v1.29c0,.09.07.16.16.16h3.73c.56,0,.99-.32.99-.86s-.35-.76-.94-.76ZM124.6,46.58c0-.55-.4-.85-1.06-.85h-4.35c-.09,0-.16.07-.16.16v1.46c0,.09.07.16.16.16h4.26c.83,0,1.14-.38,1.14-.94Z"/>
          <path class="cls-1" d="M129.48,45.21v-.48c0-3.1,1.9-4.77,5.8-4.77s5.82,1.66,5.82,4.77v.48c0,3.12-1.92,4.78-5.82,4.78s-5.8-1.66-5.8-4.78ZM138.65,45.24v-.52c0-1.9-1.54-2.5-3.37-2.5s-3.34.59-3.34,2.5v.52c0,1.89,1.54,2.5,3.34,2.5s3.37-.61,3.37-2.5Z"/>
          <path class="cls-1" d="M149.25,46.83h-2.45c-.09,0-.16.07-.16.16v2.58c0,.09-.07.16-.16.16h-2.05c-.09,0-.16-.07-.16-.16v-9.19c0-.09.07-.16.16-.16h5.89c2.4,0,3.75.78,3.75,3.24,0,1.53-.67,2.58-1.89,3.05-.1.04-.14.17-.07.25l2.16,2.7c.09.11,0,.27-.13.27h-2.46c-.05,0-.1-.02-.13-.06l-2.16-2.78s-.08-.06-.13-.06ZM146.64,44.52c0,.09.07.16.16.16h3.3c.94,0,1.5-.38,1.5-1.23s-.55-1.04-1.5-1.04h-3.3c-.09,0-.16.07-.16.16v1.94Z"/>
          <path class="cls-1" d="M156.51,45.21v-.48c0-3.1,1.9-4.77,5.8-4.77s5.82,1.66,5.82,4.77v.48c0,3.12-1.92,4.78-5.82,4.78s-5.8-1.66-5.8-4.78ZM165.68,45.24v-.52c0-1.9-1.54-2.5-3.37-2.5s-3.34.59-3.34,2.5v.52c0,1.89,1.54,2.5,3.34,2.5s3.37-.61,3.37-2.5Z"/>
          <path class="cls-1" d="M170.81,44.97v-4.59c0-.09.07-.16.16-.16h2.13c.09,0,.16.07.16.16v4.6c0,2.14,1.13,2.75,2.62,2.75s2.69-.61,2.69-2.75v-4.6c0-.09.07-.16.16-.16h2.13c.09,0,.16.07.16.16v4.59c0,3.36-1.69,5.02-5.15,5.02s-5.08-1.66-5.08-5.02Z"/>
          <path class="cls-1" d="M194.67,44.56v3.96c0,.05-.02.11-.07.14-1.12.79-2.89,1.33-5.28,1.33-3.82,0-5.61-1.66-5.61-4.78v-.48c0-3.1,1.79-4.77,5.6-4.77,2.14,0,3.65.45,5.1,1.71.07.06.08.16.02.23l-1.32,1.65c-.06.08-.17.08-.24,0-.9-.91-2.09-1.35-3.55-1.35-1.73,0-3.14.59-3.14,2.5v.52c0,1.89,1.41,2.5,3.5,2.5,1.36,0,2.05-.2,2.47-.43.05-.03.08-.08.08-.14v-.69c0-.09-.07-.16-.16-.16h-3.78c-.09,0-.16-.07-.16-.16v-1.59c0-.09.07-.16.16-.16h6.23c.09,0,.16.07.16.16Z"/>
          <path class="cls-1" d="M208.18,40.38v9.19c0,.09-.07.16-.16.16h-2.13c-.09,0-.16-.07-.16-.16v-3.45c0-.09-.07-.16-.16-.16h-5.12c-.09,0-.16.07-.16.16v3.45c0,.09-.07.16-.16.16h-2.11c-.09,0-.16-.07-.16-.16v-9.19c0-.09.07-.16.16-.16h2.11c.09,0,.16.07.16.16v3.21c0,.09.07.16.16.16h5.12c.09,0,.16-.07.16-.16v-3.21c0-.09.07-.16.16-.16h2.13c.09,0,.16.07.16.16Z"/>
        </g>
        <g>
          <path class="cls-1" d="M75.8,18.07l-7.75-16.8c-.09-.2-.3-.33-.52-.33h-5.99c-.42,0-.7.45-.51.83l11.78,23.84c.1.2.3.32.51.32h6.05c.22,0,.42-.12.51-.32L91.59,1.77c.19-.38-.09-.83-.51-.83h-6c-.22,0-.43.13-.52.33l-7.72,16.8c-.2.44-.84.44-1.04,0Z"/>
          <rect class="cls-1" x="99.72" y=".94" width="6.39" height="24.95" rx=".57" ry=".57"/>
          <path class="cls-1" d="M136.2,15.63l-12.5-14.49c-.11-.13-.27-.2-.43-.2h-5.56c-.32,0-.57.26-.57.57v23.81c0,.32.26.57.57.57h5.1c.32,0,.57-.26.57-.57v-13.85c0-.53.66-.78,1.01-.37l12.5,14.59c.11.13.27.2.44.2h5.6c.32,0,.57-.26.57-.57V1.51c0-.32-.26-.57-.57-.57h-5.14c-.32,0-.57.26-.57.57v13.74c0,.53-.66.78-1.01.37Z"/>
          <path class="cls-1" d="M160.33.94h-5.25c-.32,0-.57.26-.57.57v23.81c0,.32.26.57.57.57h20.81c.32,0,.57-.26.57-.57v-4.77c0-.32-.26-.57-.57-.57h-14.42c-.32,0-.57-.26-.57-.57V1.51c0-.32-.26-.57-.57-.57Z"/>
          <rect class="cls-1" x="185.01" y=".94" width="6.39" height="24.95" rx=".57" ry=".57"/>
          <path class="cls-1" d="M221.48,15.63l-12.5-14.49c-.11-.13-.27-.2-.43-.2h-5.56c-.32,0-.57.26-.57.57v23.81c0,.32.26.57.57.57h5.1c.32,0,.57-.26.57-.57v-13.85c0-.53.66-.78,1.01-.37l12.5,14.59c.11.13.27.2.44.2h5.6c.32,0,.57-.26.57-.57V1.51c0-.32-.26-.57-.57-.57h-5.14c-.32,0-.57.26-.57.57v13.74c0,.53-.66.78-1.01.37Z"/>
          <path class="cls-1" d="M268.75.83h-6.94c-.14,0-.28.05-.38.15l-10.44,9.42c-.11.09-.24.15-.38.15h-3.89c-.32,0-.57-.26-.57-.57V1.52c0-.32-.26-.57-.57-.57h-5.26c-.32,0-.57.26-.57.57v23.84c0,.32.26.57.57.57h5.26c.32,0,.57-.26.57-.57v-8.33c0-.32.26-.57.57-.57h4c.14,0,.28.05.39.15l10.32,9.39c.11.1.24.15.39.15h6.9c.52,0,.77-.64.39-1l-12.37-11.26c-.25-.23-.25-.62,0-.85l12.42-11.22c.39-.35.14-1-.38-1Z"/>
        </g>
      </g>
      <path class="cls-2" d="M57.27,22.06l-4.98-8.63c-.23-.4-.66-.65-1.12-.65h-3.05c-.32,0-.52-.35-.36-.62l1.53-2.64c.23-.4.23-.89,0-1.3l-4.08-7.08c-.38-.65-1.07-1.06-1.83-1.06l-9.85-.03c-.46,0-.89.24-1.12.64l-1.53,2.64c-.16.27-.56.27-.72,0l-1.51-2.65c-.23-.4-.66-.65-1.12-.65L17.58,0c-.76,0-1.23.82-.85,1.47l12.34,21.48c.2.36.58.57.99.57h26.36c.76,0,1.23-.81.85-1.46ZM50.71,15.59l2.81,4.88c.16.27-.04.61-.35.61-8.16,0-17.6,0-19.72-.01-.19,0-.31-.21-.22-.38l2.96-5.1c.13-.23.37-.37.63-.37h13.25c.26,0,.5.14.63.36ZM46.56,9.36l-1.73,2.99c-.17.3-.49.48-.83.48h-5.57c-.27,0-.45-.29-.31-.53l5.01-8.63c.16-.27.56-.27.71,0l2.72,4.72c.17.3.17.68,0,.98ZM20.82,2.46l5.66.02c.23,0,.44.12.56.33l1.81,3.16c.17.3.17.67,0,.96l-2.8,4.83c-.14.24-.48.24-.62,0l-4.97-8.68c-.16-.28.04-.62.36-.62ZM27.31,14.35l6.69-11.52c.12-.21.34-.33.58-.33l5.64.02c.32,0,.52.35.36.62l-5.2,8.99c-2.08,3.58-3.82,6.57-4.54,7.82-.16.27-.56.27-.71,0l-2.8-4.89c-.12-.22-.12-.48,0-.7Z"/>
      <path class="cls-3" d="M17.13,50.74h9.97c.46,0,.89-.25,1.12-.65l1.52-2.64c.16-.28.56-.28.72,0l1.52,2.64c.23.4.66.65,1.12.65h8.18c.75,0,1.45-.4,1.83-1.06l4.94-8.52c.23-.4.23-.89,0-1.29l-1.52-2.65c-.16-.28.04-.62.36-.62h3.05c.46,0,.89-.24,1.12-.64l4.99-8.61c.38-.65-.09-1.47-.85-1.47l-24.77-.03c-.41,0-.79.22-.99.57l-13.17,22.84c-.38.65.1,1.47.85,1.47ZM26.01,48.29h-5.64c-.32,0-.51-.34-.36-.61,4.07-7.07,8.79-15.25,9.85-17.08.1-.17.34-.17.44,0l2.94,5.11c.13.23.13.51,0,.73l-6.61,11.48c-.13.22-.37.36-.63.36ZM33.48,47.8l-1.72-2.99c-.17-.3-.17-.66,0-.96l2.78-4.83c.14-.24.48-.24.62,0l4.98,8.65c.16.28-.04.62-.36.62h-5.44c-.35,0-.67-.18-.85-.49ZM52.31,28.94l-2.84,4.9c-.12.2-.33.32-.56.32h-3.64c-.34-.01-.66-.19-.83-.49l-2.79-4.84c-.14-.24.04-.53.31-.53l10,.03c.32,0,.52.35.36.62ZM38.76,28.63l6.64,11.54c.12.21.12.46,0,.66l-2.83,4.88c-.16.27-.56.27-.71,0l-5.19-9c-2.06-3.59-3.79-6.59-4.5-7.84-.16-.28.04-.62.36-.62h5.64c.25.02.48.15.6.36Z"/>
      <path class="cls-4" d="M27.25,24.43L14.05,1.61c-.38-.65-1.32-.65-1.7,0l-4.98,8.63c-.23.4-.23.89,0,1.3l1.53,2.64c.16.28-.04.62-.36.62h-3.05c-.46,0-.89.25-1.12.65L.28,22.52c-.38.65-.38,1.46,0,2.11l4.91,8.54c.23.4.66.65,1.12.65h3.05c.32,0,.52.35.36.63l-1.53,2.64c-.23.4-.23.89,0,1.3l4.96,8.63c.38.66,1.32.66,1.7,0l12.41-21.44c.21-.35.21-.79,0-1.15ZM10.03,10.52l2.82-4.88c.16-.27.55-.28.71,0,4.08,7.06,8.81,15.24,9.87,17.07.1.17-.03.38-.22.38h-5.9c-.26,0-.5-.15-.63-.37l-6.64-11.47c-.13-.22-.13-.5,0-.72ZM3.15,22.45l2.72-4.72c.17-.3.5-.49.85-.49h3.45c.34,0,.66.18.83.48l2.79,4.82c.14.24-.03.53-.31.53H3.51c-.32-.01-.52-.36-.36-.63ZM19.38,34.33l-5.02,8.65c-.16.27-.56.27-.72,0l-2.82-4.91c-.12-.2-.11-.45,0-.65l1.83-3.15c.17-.3.49-.48.83-.48h5.59c.27,0,.45.3.31.54ZM24.12,26.17l-2.83,4.88c-.12.22-.36.35-.6.35l-13.32-.02c-.24,0-.46-.13-.57-.33l-2.81-4.89c-.16-.28.04-.62.36-.62h10.39c4.14,0,7.6.02,9.04.02.32,0,.51.35.35.62Z"/>
    </g>
  </g>
</svg>